<?xml version="1.0" encoding="UTF-8"?><svg id="_レイヤー_2" xmlns="http://www.w3.org/2000/svg" viewBox="0 0 200 160"><defs><style>.cls-1{fill:none;}.cls-1,.cls-2,.cls-3{stroke-width:0px;}.cls-2{fill:#f3b3c9;}.cls-3{fill:#ea6d93;}</style></defs><g id="_レイヤー_1-2"><g id="logomark-chi2025"><path class="cls-2" d="m27.787,133.092s-4.772-3.694-9.198-2.514c-4.199,1.119-4.609,3.946-4.609,3.946l3.802,1.021-2.806,2.925s4.158,1.64,7.802-.062c2.883-1.348,5.009-5.315,5.009-5.315Z"/><path class="cls-2" d="m11.248,130.339s-.954-4.576-4.213-6.279c-3.274-1.71-4.959-.485-4.959-.485l1.555,2.832-3.632.293s1.327,3.155,5.317,4.462c2.48.812,5.931-.822,5.931-.822Z"/><path class="cls-2" d="m169.712,51.908s3.716,2.828,8.428,2.027c4.987-.849,6.795-3.972,6.795-3.972l-4.651-1.294,3.266-3.436s-4.521-1.365-8.537.15c-3.167,1.196-5.3,6.525-5.3,6.525Z"/><path class="cls-2" d="m187.682,54.028s2.079,3.93,5.764,4.467c3.571.52,5.511-1.057,5.511-1.057l-2.676-2.011,3.516-1.091s-1.834-2.756-5.161-3.018c-3.747-.295-6.954,2.711-6.954,2.711Z"/><path class="cls-3" d="m167.233,100.658c1.939-7.072,2.915-14.532,2.781-22.226C169.254,34.891,133.212.086,89.672.846c-28.218.493-52.768,15.806-66.344,38.376-1.006,2.015-1.006,3.167-.72,4.104.604,2.089,2.641,3.692,9.922,4.992,6.159,1.099,13.666,2.78,21.951,4.962-1.334-2.429-2.371-7.371-3.42-10.481-.921.492-3.805.848-4.199.759,0,0,.14-3.015,1.117-4.959.599-1.19,1.891-2.161,3.135-2.413h.008c2.073-.417,4.559.017,5.455.342-.991,3.08-3.23,5.133-3.23,5.133.466,1.53,1.058,3.498,2.373,5.89,1.611,2.931,3.964,5.915,5.66,7.613,11.85,3.346,24.865,7.587,37.585,12.513-.616,1.528-1.204,3.2-1.701,4.976-6.548-2.605-12.562-4.925-16.819-6.567-10.426-4.02-28.917-8.211-42.343-10.825-.244,1.387-.658,3.909-.658,3.909,0,0,.964.562,1.159,2.658.111,1.191-.203,1.864-.379,2.312-.331-.639-.927-2.353-2.644-2.994-2.281-.853-3.784-.049-4.037.021.143-.51.39-1.327,1.153-1.854,1.208-.841,1.995-1.15,1.995-1.15l1.306-3.306c-7.333-1.393-12.788-2.242-13.923-2.223-4.251.074-5.451,2.455-6.608,5.936-1.627,4.9-3.496,15.817-3.377,22.622.76,43.541,36.801,78.344,80.34,77.584,31.217-.545,57.943-19.224,70.291-45.801.205-.441.031-.855-.344-1.18-1.725-1.489-6.885-5.923-12.509-10.568,0,0,3.452-2.758,4.831-3.395,4.786,1.984,9.357,2.896,11.343,3.228.662.111.993.053,1.191-.399ZM45.619,43.638c-1.748.374-7.218.607-9.855-.774-2.13-1.121-3.474-2.888-3.437-3.534l4.227-1.185-3.743-2.281s1.102-2.675,4.741-3.14c.035.051,1.221,1.933,2.173,2.753,1.678,1.448,3.583,2.642,5.111,3.113.774.239,1.662.339,1.715.341-.672,1.742-.92,3.928-.932,4.707Zm4.687-8.422c-1.328.374-3.111,2.121-3.269,2.628-2.217-.21-3.842-1.024-6.05-2.697-1.691-1.282-2.373-2.714-2.646-3.291-1.086-2.294-1.112-4.66-.851-5.481,0,0,3.104.271,5.026.937-.158-2.743.159-4.735.159-4.735,3.147.847,6.843,2.925,7.518,7.544.075.512.37,3.055.112,5.094Zm9.823-6.657c-.181,2.665-1.945,5.359-3.252,6.838-1.292-.52-5.416-.584-5.41-.666.091-1.315,0-3.04-.016-3.209-.027-.502-.147-2.166-.477-3.48-.334-1.332-1.131-2.54-1.147-2.554-.071-2.989,1.639-4.064,1.97-4.568l3.288,4.819,2.378-4.289c.74.426,2.265,2.058,2.624,4.969.081.662.09,1.384.042,2.141Zm107.778,57.755l-1.875,2.718,2.854,1.454c-.401.509-2.762,3.426-5.248,3.753-4.738.624-6.617-.828-6.695-.869.234-3.007-.626-4.371-.767-4.537.219-.272.621-1.782,3.85-3.397,2.966-1.41,6.175-.761,7.881.879Zm-9.062-8.833l-.059,3.649s1.324-1.163,3.652-1.614c.342.621.643,3.369.476,4.153-.044.011-1.22.237-2.49.703-1.042.382-1.869.772-2.811,1.516-.293.231-1.394,1.422-1.982,2.187-.074.096-.82-.782-2.292-1.548-.637-1.54.073-5.849,1.955-7.453,1.525-1.297,3.059-1.818,3.554-1.593Zm-13.4-14.212c2.728-4.539,7.603-6.198,7.603-6.198l-.532,5.823,4.841-2.658s1.72,3.219-2.069,8.684c-3.363,4.85-11.093,4.929-11.093,4.929,0,0-.909-6.98,1.251-10.58Zm-17.57,17.465c3.595,1.96,7.847,4.415,12.457,7.345-3.047-.668-6.425-1.103-9.849-.979-1.223.044-3.804.383-3.871.395.961-1.887,1.193-5.098,1.263-6.761Zm-7.904-18.788s4.509,3.852,4.037,17.967c-.46,13.782-15.447,21.097-15.447,21.097,0,0-8.1-10.107-8.536-18.995-.67-13.663,7.543-21.435,7.543-21.435l5.086,10.995,7.317-9.628Zm-24.342-44.354c6.525-3.268,11.9-.483,11.9-.483l-4.386,3.881,5.62.847s-.413,3.123-6.507,5.689c-5.411,2.268-12.129-1.333-12.129-1.333,0,0,1.776-6.735,5.503-8.601Zm-28.845,7.281l5.49-1.276-3.988-3.356s2.225-2.668,8.687-1.264c6.462,1.404,8.345,8.715,8.345,8.715,0,0-5.669,2.686-9.81,2.211-6.268-.72-8.724-5.03-8.724-5.03Zm19.233,15.332c-2.184,4.811-7.478,6.63-7.478,6.63l.408-5.447-5.212,2.364s-1.065-2.486,2.21-8.238c3.274-5.743,10.5-5.803,10.5-5.803,0,0,1.294,6.7-.428,10.493Zm-5.177-23.229c-2.343-5.55.874-10.932.874-10.932l3.529,4.257,1.5-4.776s2.898,1.101,4.589,6.913c1.848,6.352-3.672,12.647-3.672,12.647,0,0-5.2-4.269-6.82-8.108Zm11.56,23.772c-4.924-4.352-3.199-11.56-3.199-11.56,0,0,6.129-.476,9.322,2.16,4.045,3.329,5.784,8.949,5.784,8.949l-5.613-1.375,1.533,5.086s-3.736.353-7.826-3.261Zm-55.606,26.988c-1.169,1.763-3.546,2.244-5.309,1.075-1.763-1.169-2.244-3.546-1.075-5.309,1.169-1.763,3.546-2.244,5.308-1.075,1.763,1.169,2.244,3.546,1.075,5.308Zm11.585,66.333c-4.056,1.52-8.694-.061-8.694-.061l3.307-3.462-3.997-1.418s.499-2.18,5.711-3.752c4.619-1.393,9.662,2.838,9.662,2.838,0,0-2.78,4.658-5.989,5.856Zm14.753-14.794c-1.713,3.724-5.02,4.135-5.02,4.135l.278-3.194-2.835,1.274s-1.111-1.244.851-4.714c1.737-3.08,6.689-3.496,6.689-3.496,0,0,1.086,3.715.038,5.995Zm11.095-41.964s6.672-2.448,17.253,3.628c12.243,7.032,11.526,23.036,11.526,23.036,0,0-12.783,2.211-20.926-1.354-12.34-5.423-14.887-13.741-14.887-13.741l11.066-1.323-4.031-10.247Zm1.282,59.829l4.842-10.92-10.978.793s-.487-6.455,8.55-14.659c10.456-9.493,25.735-3.63,25.735-3.63,0,0-1.557,12.733-7.434,19.418-8.61,9.794-20.715,8.998-20.715,8.998Zm54.57,5.169l-9.532-6.099-.675,10.808s-6.342-.465-13.147-11.524c-7.405-12.033,1.401-26.416,1.401-26.416,0,0,12.247,3.569,17.146,11.005,7.53,11.431,4.807,22.227,4.807,22.227Zm10.555-39.349l9.452,5.624s-4.381,6.769-15.395,7.146c-12.523.429-23.32-10.452-23.32-10.452,0,0,7.292-12.553,16.074-13.982,11.109-1.836,23.347,4.526,23.347,4.526l-10.157,7.138Zm9.691-11.641c.531-.335,1.083-.882,1.39-1.235.971-1.386,1.229-2.179,1.338-2.638.524.172,3.51,1.802,2.829,5.219-.128.641-.36.793-.462.715,0,0-3.773-1.49-5.094-2.061Z"/><rect class="cls-1" width="200" height="160"/></g></g></svg>